<svg height="167" viewBox="0 0 360 167" width="360" xmlns="http://www.w3.org/2000/svg"><g fill-rule="evenodd"><path d="m87.92 55.48h4.7v4.7h-4.7z" fill-rule="nonzero"/><path d="m87.92 64.77h4.7v37.03h-4.7z" fill-rule="nonzero"/><path d="m101.79 55.48h4.7v9.29h18.51v4.58h-18.51v23.16c-.021395 1.2339172.451773 2.4251053 1.314023 3.3080184.862249.8829132 2.041899 1.3841534 3.275977 1.3919816h13.92v4.58h-13.92c-5.124544-.005498-9.278982-4.155465-9.29-9.28v-23.16h-6.93v-4.58h6.93z"/><path d="m78.0500402 78.64h-30.9200402c.12-3.41.94-5.76 2.59-7.06 1.2845242-1.032935 2.8333349-1.6843364 4.47-1.88 2.790702-.498912 5.6273202-.6933847 8.46-.58 2.8325287-.103385 5.6680829.0910147 8.46.58 1.6301636.219877 3.1727169.8686466 4.47 1.88 1.6533333 1.3 2.4766667 3.6533333 2.4700402 7.06zm-30.9200402 4.7h36.21c.0885022-3.0731792-.1494981-6.1470708-.71-9.17-.4321878-1.920832-1.2747915-3.7254366-2.47-5.29-1.5079189-1.8203631-3.569065-3.0984843-5.87-3.64-3.8737977-.7426821-7.817414-1.0579031-11.76-.94-3.9789958-.1159687-7.9588527.1992011-11.87.94-2.281114.5156834-4.3151124 1.8010573-5.76 3.64-1.2806187 1.5113407-2.1334523 3.3378548-2.47 5.29-1.0936588 6.024098-1.0936588 12.195902 0 18.22.3365477 1.9521452 1.1893813 3.7786593 2.47 5.29 1.4476447 1.8358851 3.4804642 3.120514 5.76 3.64 2.47.71 6.35.94 11.87.94s9.41-.23 11.76-.94c2.2992399-.545598 4.3591778-1.8229701 5.87-3.64.9324181-1.2008631 1.6496955-2.5542167 2.12-4h-5.52c-.3604874.4965399-.7547541.9676552-1.18 1.41-1.320087.9775472-2.8511111 1.6317432-4.47 1.91-2.8025411.3863169-5.6319133.5435043-8.46.47-2.8281998.0815497-5.6582377-.0756746-8.46-.47-1.6231558-.2451924-3.1595243-.8913608-4.47-1.88-1.41-1.17-2.23-3.17-2.47-5.88-.12-1.91-.12-4.02-.12-5.9z" fill-rule="nonzero"/><path d="m83.34 166.560002c45.994274 0 83.28-37.285728 83.28-83.280002s-37.285726-83.28064184-83.28-83.28064184c-14.6184389-.0572315-28.9858118 3.79961914-41.61 11.17064184l4.58 8c11.2393954-6.5139984 24.0094791-9.92050453 37-9.87 29.954066-.01213507 56.965222 18.0229544 68.435622 45.6938083 11.4704 27.6708538 5.140571 59.5267837-16.037293 80.7103697s-53.0320821 27.522021-80.7060338 16.059097-45.71633786-38.469207-45.7122952-68.423275h-9.29c.05518968 45.985118 37.3548505 83.231071 83.34 83.220002z"/><path d="m83.34 148.100011c23.152305.013737 44.542225-12.361669 56.07-32.440011l-8-4.58c-12.579214 21.756484-38.2003383 32.355059-62.4732603 25.843034-24.2729221-6.512025-41.1484576-28.511754-41.1484576-53.643034 0-25.1312796 16.8755355-47.131009 41.1484576-53.6430341 24.272922-6.5120251 49.8940463 4.0865505 62.4732603 25.8430341l8-4.58c-15.734576-27.2026506-48.7258153-39.1858424-78.2505531-28.4224357-29.5247378 10.7634068-47.0634336 41.1675665-41.5993052 72.1143655 5.4641284 30.9467992 32.354374 53.5063532 63.7798583 53.5080812z"/><g fill-rule="nonzero"><path d="m189.85 64.84h24.92c11.16 0 13.92.61 16.63 3.55 2.38 2.6 3.14 6.2 3.14 14.9 0 8.19-1.14 12.84-3.84 15.45s-5.37 3-15.55 3h-25.3zm25.08 32.62c7 0 7.21 0 9.21-.5 3.9-.94 5.47-4.92 5.47-13.9 0-5.7-.76-9.63-2.17-11.46-1.19-1.44-2.87-2.1-6.17-2.33-1-.11-2.55-.11-6.61-.11h-20v28.3z"/><path d="m242.77 64.84v4.82h-4v-4.82zm0 11.3v25.64h-4v-25.64z"/><path d="m279.44 76.14v19.22c0 7.86-.54 10.69-2.43 12.85-2.28 2.54-5.15 3.15-14.52 3.15-8.4 0-11.87-.94-13.87-3.71-.92-1.27-1.19-2.21-1.19-4.59h4.11c.33 3.76 2.44 4.76 10.51 4.76 7.59 0 10.46-.56 11.81-2.33 1.14-1.44 1.36-2.71 1.57-8h-.27c-2.16 2.77-4.17 3.32-12.24 3.32-7 0-10.35-.61-12.35-2.16-2.6-2.05-3.79-5.26-3.79-10.41 0-6 1.73-9.53 5.41-11.19 2.17-.94 5.1-1.27 11.54-1.27 5.58 0 7.42.28 9.16 1.27.982511.5564082 1.802859 1.3595221 2.38 2.33h.22l-.06-3.27zm-25.68 4.6c-1.84 1.0533333-2.76 3.6-2.76 7.64 0 4.49 1.08 6.92 3.47 8 1.35.61 4.17.89 8.72.89 5.58 0 8.18-.39 9.7-1.44 1.84-1.33 2.54-3.55 2.54-7.92 0-7.09-2.05-8.59-11.7-8.59-5.47.03-8.34.42-9.97 1.42z"/><path d="m287.89 64.84v4.82h-4v-4.82zm0 11.3v25.64h-4v-25.64z"/><path d="m300.24 69.77v6.37h17.55v3.49h-17.55v11.08c.11 4.87.11 5 .92 6.09 1 1.27 2.82 1.77 6.61 1.77 3.52 0 4.87-.39 5.74-1.77.6-.94.76-1.89.76-5v-1.65h4v1.61c0 4-.33 5.65-1.36 7.2-1.46 2.27-4.17 3.16-9.48 3.16s-8.23-.84-9.7-2.89c-1.08-1.55-1.41-3.15-1.41-7.19v-12.41h-6.17v-3.49h6.17v-6.37z"/><path d="m321.31 83.84v-1.11c0-5.37 3.2-6.92 14.08-6.92 8.51 0 11.44.61 13.55 2.88 1.73 1.77 2.11 3.49 2.11 9.58v13.51h-3.95v-3h-.1c-1.9 2.77-3.74 3.33-11.38 3.33-9 0-11.38-.34-13.22-1.78-1.62-1.33-2.16-2.88-2.16-6 0-4 1-6 3.57-7 1.52-.61 3.9-.83 9.21-.83 10.29 0 12 .33 13.76 2.77h.33v-2.77c0-2.66-.27-3.77-1.19-4.88-1.41-1.77-3.69-2.27-10.24-2.27-8.62 0-10.14.61-10.19 4.16v.33zm4.6 7.14c-1.04943.8165501-1.601744 2.1178931-1.46 3.44 0 1.88.54 2.88 1.95 3.49 1.14.49 3.85.66 10 .66 8.4 0 10.41-.83 10.41-4.26s-2.39-4.21-11.22-4.21c-6.59 0-8.54.16-9.68.9z"/><path d="m359.34 64.84v36.94h-4v-36.94z"/></g></g></svg>