<?xml version="1.0" encoding="utf-8"?>
<!-- Generator: Adobe Illustrator 25.0.1, SVG Export Plug-In . SVG Version: 6.00 Build 0)  -->
<svg version="1.1" id="Layer_1" xmlns="http://www.w3.org/2000/svg" xmlns:xlink="http://www.w3.org/1999/xlink" x="0px" y="0px"
     viewBox="0 0 145.1 169.9" style="enable-background:new 0 0 145.1 169.9;" xml:space="preserve">
<style type="text/css">
	.st0{fill:#D4062F;}
	.st1{fill:#FFFFFF;}
	.st2{fill:#FFC726;}
</style>
    <g id="Kalustokuvasto">
	<path class="st0" d="M125.4,77.6c0-0.1,2.7-0.8,2.7-0.8l2.4-1.8c3.4,3.4,1.6,8.3,0.2,9.6l3.1-1.1c-0.5,4.2-1.3,9.9-8.3,12.1v22.5
		l12.6,0.2l0.7,51.5H9.8l0.5-51.7l11.8-0.1v-17.8l-6.3-8.7v-2l-6.3,1.7l4-11l-5.2-2.3l11.3-8.9l2.3,1.4V61h-13L0,0h32.6v16.9h21.9V0
		h38.2v17h22V0h30.4L138,61.2h-12.6V77.6z"/>
        <path class="st1" d="M111.8,153.1l0.3-2c-1.1,0-2-0.1-2.7-2.6l-2.4,5.6C108.7,154.5,110.4,154.1,111.8,153.1"/>
        <path class="st1" d="M28.7,31.2c1.1,3.3,3.2,4.2,5.2,4.4v4.4l-6.7,0.5c-2,0.4-2.6-1.5-3.6-7.5C23.6,32.9,28.7,31.2,28.7,31.2"/>
        <path class="st1" d="M26.1,41.9c0.8,5.8,3.3,6.4,5,6.8L31,49.4l-1.8,0.3l0.1,2.4l13.2-2.9l-3.2-6c1.2-4.1,1.3-7.9-1.7-13l-7.2-0.7
		c1.8,5.1,3.9,4,5.6,4.3l-0.5,7.2L26.1,41.9z"/>
        <path class="st1" d="M39.4,55.1l-1-3.5l-6.4,1l-0.1,4C34.5,57.2,37.2,56.7,39.4,55.1"/>
        <polygon class="st1" points="39.6,51.5 40.2,54.4 42.4,52.9 41.4,50.9 	"/>
        <polygon class="st1" points="44.3,29.9 44.4,33.2 61.3,30.9 63.5,27.1 	"/>
        <polygon class="st1" points="44.6,34.9 60.5,32.6 58.6,35.6 45.6,37.4 	"/>
        <path class="st2" d="M40.4,43.1l4.4,4.3l3.1-5.8c-2.8-1.1-6.7-9.2-3.4-15.7l-4.8-4l-2.4,5.5C42.5,31.5,42.2,41.2,40.4,43.1"/>
        <path class="st1" d="M54,149.1c14.3,4.6,23.4,3.9,33.8,3.9l-0.3,4.4c-13.9-0.1-25.8,0.3-41.9-7.5C49.2,146.2,51.5,148.4,54,149.1"
        />
        <path class="st1" d="M49.2,143.3l-0.1,2c15.4,7.4,28.1,6.5,39.2,6.6l0.4-3.8C75,149.1,64.3,149.2,49.2,143.3"/>
        <path class="st1" d="M88.7,27c2.6-0.4,3.9,0.2,5,1.3c3.7-0.7,4,1.3,4.2,2.1l4.3-0.6l6.1-4.6l-6.6-2.7l-14.5,2.2
		C87.8,25.8,88.1,26.1,88.7,27"/>
        <path class="st1" d="M96.8,151.8c-1.2,2-2.9,2.4-1.1,4.5c-1.9,1.1-4.1,1.3-6.2,0.8c1.7-1.4,2.9-3.2,3.6-5.3
		C94.2,154.8,95.8,152.4,96.8,151.8"/>
        <path class="st1" d="M50.5,66.7c-3.9-0.9-0.4-3.4,1-3.8l-5-4.2c-2.7,0.2-7.5,1.1-8.1,7.4l7.8,6.3c2.1,0.6,3.1-0.3,3.3-1.1
		L50.5,66.7z"/>
        <path class="st1" d="M47.6,58.8c-0.3-1,0.3-2,1.3-2.3c0,0,0,0,0.1,0l6,3.3l-2.8,2.6L47.6,58.8z"/>
        <path class="st2" d="M60.2,48.3l0.9,3C59.7,51.1,47.1,53,51,42C52.9,48.6,57.1,48.1,60.2,48.3"/>
        <polygon class="st2" points="22.2,33.4 23.7,40.2 22.2,41.8 17,38.3 20.1,32.6 	"/>
        <path class="st2" d="M31.5,57.6c4.7,2,12.2-1.8,13.1-4.9l3.4,0.7L46.9,57c-2.8,0.5-8.7,1.1-10.5,9.7c0,0-7.3-2.1-7.3-2.1
		S31.5,57.6,31.5,57.6"/>
        <path class="st2" d="M77.1,53.5c-2.2-3-4.7-6.1-11.2-6.3c0,0,0.3,2.5,0.3,2.5c4.7,0.1,7.1,1.4,9.3,4L77.1,53.5z"/>
        <path class="st2" d="M91.8,135.9c4.3,0.3,6.7,1.9,9.3,4c-0.8,1.4-4.1,3.4-7.8,2.1l1.6-3.1l-1-0.3l-3,4.1l-1.5,0.8l-1.7,0.3
		L91.8,135.9z"/>
        <polygon class="st2" points="88.2,99.3 87.3,103.4 82.7,96 	"/>
        <path class="st2" d="M71.3,13.1c2.2,2,1.8,4.1,0.8,5.1c0.4-0.2,0.8-0.3,1.2-0.3c1.4,0.2,2.3,1.5,2.1,2.9c-0.2,1.1-1,1.9-2.1,2.1
		c-1,0.1-2-0.5-2.4-1.5l-0.2,0.9l7.2,5l0.1,0.1l0.8-1.1c-0.1,0.1-0.3,0.1-0.4,0.1c-1.4,0.2-2.7-0.7-3-2.1c-0.2-1.3,0.6-2.6,2-2.9
		c1.4-0.3,2.8,1.2,3.1,2.5c0-0.1,0.1-1.1,0.1-1.3c0.1-1.4,1.3-2.5,2.7-2.4c1.3,0.1,2.3,1.1,2.4,2.4c0.1,1.3-0.8,2.5-2.1,2.6
		c0,0-0.1,0-0.1,0c0.1-0.1-0.2,0.8-0.1,0.7c1.1-0.8,2.7-0.7,3.6,0.3c0.9,1.1,1.1,3,0,3.9c-2.4,1.9-4.2,0.4-4.2-1.4
		c-0.2,0.4-0.5,0.9-0.8,1.3l6.7,4.3l1.3-0.6c-0.1,0-0.3,0-0.4,0c-1.4-0.2-2.4-1.5-2.2-2.9s1.5-2.4,2.9-2.2c1.4,0.2,2.4,1.5,2.2,2.8
		c0.3-1.3,1.1-2.8,3.3-1.3l-7,6.7L68,22.5c0.1,0,3.2-9.2,3.3-9.2S71.3,13.1,71.3,13.1"/>
        <polygon class="st2" points="12.1,77.5 20.2,71.2 30.2,80.2 25,80.5 19,78.4 21.1,76.3 19.7,75.6 14.7,77.5 	"/>
        <path class="st2" d="M57.7,40.2l0.7,1.6l1.9-1.5l-0.8,3.3l1.4,2.2l2.4-1.4l-1.8,2.6c0.9,1.6,1.1,2.3,2.5,3.3
		c0.7-9.9,9.8-7.9,12.7-4.6c3.2,4.2,3.8,12.5-7.6,8.7l-2-0.8l-1.7-1.3c0,0-0.9-0.9-1-0.9l-0.1,1.4L63,55.9c3,1.5,6.3,2.3,9.7,2.3
		v2.1c-5.6-1.1-14.1-4.1-19.4,3.7L52.2,64l-0.8,1.3l1.3,0.5c0,0-1.3,4.6-1.3,4.7l9.5-4.4h1.2l0.1,1l-31,15l-4.4,0.4l-10-1.7
		l-4.6,7.8l4.6-1l0.7-4.2l2,0.4l-1.4,4l5-0.4l4.5-2l1.7,0.8l-10.9,5.3l6.2,8.8l-0.3-9.1l1.2,4l6.1-5.4l1.6-0.2c0,0-1.3,3.8-1.3,3.9
		s3.7,1.3,3.7,1.3l-0.3,1l-3.7-0.1l-2.6,2.8c2.9,0.3,5.8-0.4,8.2-1.9l-0.4-4.4l6.5-3.4l1.2,1l-3.2,2.9c8,2.4,10.1-4.7,11.1-7.3
		l2-0.6c-0.4,3.2-1.2,5.7-3.1,7.4c9.8-1,7.8-7.6,8-10.4l1.6-1.1c0.9,3.7,1,5.8-1.1,9.7c1.6,0.2,3.3-0.1,5.7-1.7
		c3.8-3.7,3.3-6.5,3.9-11.2c3.2,5.1,1.2,7-0.2,11.1l17.7,7.6c0.2-2.3-1-4.6-3.6-6c0-0.1,0.6-0.8,0.6-0.8c6.6,2.3,6.1,8.6,4.2,13.9
		c-6.7,15.8,6,22.8-0.7,28.5c11.5-0.5,8.9-7.4,9.1-10.8c-0.1,0,9.6,4.6,9.6,4.6c2.1,4,1.3,8.1-2.4,15.4c-4,2.4-8.5,3.8-13.1,4.2
		l-1.3,8.7l3.4-7.3l0.6-0.1l1.3,3.8l3.6-0.6l3.8-4.9l1,0.4l-2.6,4.1l-4,5.4l7.3,5.7l-1.5-5.1l-2.2-2.2l0.7-0.8l3.7,2.5l4.8-11.2
		l2.1,5.6l2.8,0.2l0.3-0.6h0.8l-0.2,1.9h-1.7l-0.1,5.4l3.2-4.6l1.7-4.7l-3.4-3.4l0.9-1.7c2.8,1.7,4.6,2.9,5.3,5.7
		c2.8-2.4,4-7.4-2.4-14.6c4.3,0.5,5.1,3.6,6.4,6c1.7-3.8,2.6-11.2-7.4-15.4l0.1-6.1l-7.1-2.2l-0.1-1l-2.5-1.1c0-2.7,4-8.5-3.3-14.4
		c8.5,2.5,12.2-2.6,14.6-5c9,2.2,11.4-4,11.6-7.2c-2.3,1.5-8.5,3.7-9.9,0.5c6.5-0.2,8.6-1.2,8.6-7.7c-2.7,1.4-6.1,2.1-8.7,1.3
		c-0.9-5-3.5-9.5-7.5-12.6c0,0-2.8,3.7-2.8,3.8c8.1,4.8,7,26.8-6.6,19.4L97,85.3L86.2,74.2c-1.6,0.7-6.1,2.4-10.4-0.6
		c8.3,1.6,13.8-1.7,13.7-5.5c-4.2,2.3-6.3,1.5-10.1,1l0.4-1.1c13.5,0.4,12.3-4.6,12.6-8.6c-1.6,2-4.4,3.5-9,2.6l0.2-1.6
		c4.1,0.1,11-2,8.8-9.6c-1.1,2.5-2.7,3.7-7.7,4.2l-0.2-1.3c1.1-0.6,8.6-1.1,7-9.6C89.7,46.4,87,48,84,48.3l-0.2-1.7
		c3.8-1,5.4-2.2,7-4.5c-0.1,0,0.1-5.1,0.1-5.1c-2,2.3-4.4,5.3-9.7,5.1L81.1,41c13.6-1.4,2.8-14.2-3.5-3.4l-1,0.1L75.8,37l0.4-0.8
		L76,34.3l-10.4-7.1l-2.9,5l4.8,0.5l0.1,2.7c0,0-4.6,2.6-4.7,2.6c0.4-1.2,0.9-2.4,1.5-3.6l-2.3-1.8L57.7,40.2z"/>
        <path class="st2" d="M79.3,95.8l6.5,8.9l-1.5,6.7c-1.6-0.1-10.8-0.4-10.4,7.4c8.4,3.6,4.4,7.8,0.5,9.4c1-1.5,1.4-4.8-2.2-5.1
		c1,4.2,2.2,8.4-6.9,10.8c4.8-4,1.9-6.3,1.3-8.4c-1.1,4.5-0.7,8-7.9,9.4l0.3-5.1l-1.2-0.9l-1.1,2.8l-3.4,2.1l3.1,4.4l-7.4,4.2
		l3.2-5.1l-1.5-0.5l-1.5,1.4l0.3-2.6l-1.3-3.8l-3.6,0.1l-3.2,6.1l-2-0.4l-0.4-1.1l-2.3-1.2l-0.4,1.2l2.4,1.9l-0.9,5.5l-4-9.2
		l9.7-4.7l-0.3-1.1L34,133l-3.8-3.2l-0.4,2.7l-4.2,5l1-8.4l28.6-9.2l1.8-0.8c3.4-1.1-1-9,2.4-11.4c-4.1,0.1-11.7,0.7-6.7-10.5
		c6.8,7.1,18.9,1.8,26.8-1.4"/>
        <polygon class="st2" points="38,124.1 31.2,118.3 23.2,126.7 25.4,126.8 30.7,124.4 31.5,122.1 33.1,123.1 32.8,124.5 31.4,124.8
		34.3,125.5 	"/>
        <path class="st2" d="M25.2,140.3l2-1.6l3.4-4.7l1.8,1.1l5.7,11.8l2.8-7.3l2.4,0.9l-4.3,7.1l-2.4-0.3l-3-5.4l-1.4,2.9l-3.6-3
		l-0.5-2.6l-1.1,2.1l0.7,1.4c-2.8-0.9-4.2,0.4-3.2,6.9c-1.8-2.1-7.5-4.4-3-9.6l0.7,0.4l0.4-2c-3.4-5.1,0.1-6.1,1.9-5.7v7.4H25.2z"/>
        <path class="st2" d="M47.4,133.2c3.4,3.8-1.4,11.5,1,13.7c-2.8,2.2-9.5,3.5-6.7,10.4c0.6-1.4-0.1-2.7,1.5-3.6
		c10.6,5.4-5.7,13.9-6.5,1c0.1-3.1,5.6-6.6,5.8-10.1c3.7-3.4,3.2-7.1,2.2-9.2L47.4,133.2z"/>
        <path class="st2" d="M122.4,38.4c-2.6-0.4-1.8,2.6-1.8,4.2c-1.7-1.4-3.3-3.5-2.5-7.8l-1.1,1.2l-1.1-0.1c-0.6,1.7-1.4,3.5,0,6.3
		c-2.3-0.5-6.5-2.8-5.4-8.1l-2.5,0.8c-2,4.7,1.6,5.6,3.7,7.6c-3.3,0.5-6.6,1.3-9.6-4c-6.4,9.9,1.7,19.3,5.6,23.8l-4.5,1
		c-2.9-3.6-4.9-6-6.7-11.5c-4-15.8,8-20.6,13.6-21.7c8.8-0.5,11.9,2.6,15.9,6.5c5.4,6.5,5.9,19.8-8.3,27.6
		c-2.6,2.6-12.3,2.2-12,22.5c-1.8-2.3-7.5-4.8-4.6-13c-0.6,0.6-4.6,0.7-2.9,10.2c-7.9-6.6-1.2-11.4-0.7-12.7
		c-2.1,0.4-3.8,0.6-5.4,4.9c-1.7-14,12.7-9.1,20.9-14.9C129.8,51.9,126.4,42.8,122.4,38.4"/>
        <polygon class="st2" points="66.3,25.8 77,33.7 80.5,32.7 67.5,23.5 	"/>
</g>
</svg>
